<svg width="18" height="18" viewBox="0 0 18 18" fill="none" xmlns="http://www.w3.org/2000/svg">
<g clip-path="url(#clip0_214_501)">
<path d="M6 2.25V4.5C6 4.89782 5.84196 5.27936 5.56066 5.56066C5.27936 5.84196 4.89782 6 4.5 6H2.25M15.75 6H13.5C13.1022 6 12.7206 5.84196 12.4393 5.56066C12.158 5.27936 12 4.89782 12 4.5V2.25M12 15.75V13.5C12 13.1022 12.158 12.7206 12.4393 12.4393C12.7206 12.158 13.1022 12 13.5 12H15.75M2.25 12H4.5C4.89782 12 5.27936 12.158 5.56066 12.4393C5.84196 12.7206 6 13.1022 6 13.5V15.75" stroke="black" stroke-width="3" stroke-linecap="round" stroke-linejoin="round"/>
</g>
<defs>
<clipPath id="clip0_214_501">
<rect width="18" height="18" fill="white"/>
</clipPath>
</defs>
</svg>
