<svg width="33" height="33" viewBox="0 0 33 33" fill="none" xmlns="http://www.w3.org/2000/svg">
<g clip-path="url(#clip0_214_480)">
<path d="M23.1667 28.5V25.8333C23.1667 24.4188 22.6048 23.0623 21.6046 22.0621C20.6044 21.0619 19.2478 20.5 17.8333 20.5H7.16667C5.75218 20.5 4.39562 21.0619 3.39543 22.0621C2.39524 23.0623 1.83333 24.4188 1.83333 25.8333V28.5M31.1667 28.5V25.8333C31.1658 24.6516 30.7725 23.5037 30.0485 22.5698C29.3245 21.6358 28.3108 20.9688 27.1667 20.6733M21.8333 4.67333C22.9806 4.96707 23.9974 5.63427 24.7235 6.56975C25.4497 7.50523 25.8438 8.65577 25.8438 9.84C25.8438 11.0242 25.4497 12.1748 24.7235 13.1103C23.9974 14.0457 22.9806 14.7129 21.8333 15.0067M17.8333 9.83333C17.8333 12.7789 15.4455 15.1667 12.5 15.1667C9.55448 15.1667 7.16667 12.7789 7.16667 9.83333C7.16667 6.88781 9.55448 4.5 12.5 4.5C15.4455 4.5 17.8333 6.88781 17.8333 9.83333Z" stroke="black" stroke-width="3" stroke-linecap="round" stroke-linejoin="round"/>
</g>
<defs>
<clipPath id="clip0_214_480">
<rect width="32" height="32" fill="white" transform="translate(0.5 0.5)"/>
</clipPath>
</defs>
</svg>
