<svg width="33" height="33" viewBox="0 0 33 33" fill="none" xmlns="http://www.w3.org/2000/svg">
<path d="M19.1667 3.16667H8.50001C7.79277 3.16667 7.11449 3.44762 6.61439 3.94772C6.11429 4.44782 5.83334 5.12609 5.83334 5.83334V27.1667C5.83334 27.8739 6.11429 28.5522 6.61439 29.0523C7.11449 29.5524 7.79277 29.8333 8.50001 29.8333H24.5C25.2073 29.8333 25.8855 29.5524 26.3856 29.0523C26.8857 28.5522 27.1667 27.8739 27.1667 27.1667V11.1667M19.1667 3.16667L27.1667 11.1667M19.1667 3.16667L19.1667 11.1667H27.1667M21.8333 17.8333H11.1667M21.8333 23.1667H11.1667M13.8333 12.5H11.1667" stroke="black" stroke-width="3" stroke-linecap="round" stroke-linejoin="round"/>
</svg>
