<svg width="25" height="26" viewBox="0 0 25 26" fill="none" xmlns="http://www.w3.org/2000/svg">
<g clip-path="url(#clip0_214_455)">
<path d="M17.7083 22.375V20.2917C17.7083 19.1866 17.2693 18.1268 16.4879 17.3454C15.7065 16.564 14.6467 16.125 13.5416 16.125H5.20829C4.10322 16.125 3.04342 16.564 2.26201 17.3454C1.48061 18.1268 1.04163 19.1866 1.04163 20.2917V22.375M23.9583 22.375V20.2917C23.9576 19.3685 23.6503 18.4716 23.0847 17.742C22.5191 17.0124 21.7272 16.4912 20.8333 16.2604M16.6666 3.76042C17.5629 3.9899 18.3573 4.51115 18.9246 5.24199C19.4919 5.97283 19.7998 6.8717 19.7998 7.79688C19.7998 8.72205 19.4919 9.62092 18.9246 10.3518C18.3573 11.0826 17.5629 11.6039 16.6666 11.8333M13.5416 7.79167C13.5416 10.0929 11.6761 11.9583 9.37496 11.9583C7.07377 11.9583 5.20829 10.0929 5.20829 7.79167C5.20829 5.49048 7.07377 3.625 9.37496 3.625C11.6761 3.625 13.5416 5.49048 13.5416 7.79167Z" stroke="black" stroke-width="3" stroke-linecap="round" stroke-linejoin="round"/>
</g>
<defs>
<clipPath id="clip0_214_455">
<rect width="25" height="25" fill="white" transform="translate(0 0.5)"/>
</clipPath>
</defs>
</svg>
