<svg width="25" height="26" viewBox="0 0 25 26" fill="none" xmlns="http://www.w3.org/2000/svg">
<path d="M9.46879 9.87501C9.71369 9.17883 10.1971 8.59179 10.8333 8.21786C11.4696 7.84393 12.2176 7.70724 12.945 7.832C13.6724 7.95677 14.3321 8.33493 14.8074 8.89952C15.2827 9.46411 15.5428 10.1787 15.5417 10.9167C15.5417 13 12.4167 14.0417 12.4167 14.0417M12.5 18.2083H12.5105M22.9167 13C22.9167 18.753 18.253 23.4167 12.5 23.4167C6.74707 23.4167 2.08337 18.753 2.08337 13C2.08337 7.24704 6.74707 2.58334 12.5 2.58334C18.253 2.58334 22.9167 7.24704 22.9167 13Z" stroke="black" stroke-width="3" stroke-linecap="round" stroke-linejoin="round"/>
</svg>
