<svg width="25" height="26" viewBox="0 0 25 26" fill="none" xmlns="http://www.w3.org/2000/svg">
<path d="M14.5833 2.58333H6.24996C5.69743 2.58333 5.16752 2.80282 4.77682 3.19352C4.38612 3.58422 4.16663 4.11413 4.16663 4.66666V21.3333C4.16663 21.8859 4.38612 22.4158 4.77682 22.8065C5.16752 23.1972 5.69743 23.4167 6.24996 23.4167H18.75C19.3025 23.4167 19.8324 23.1972 20.2231 22.8065C20.6138 22.4158 20.8333 21.8859 20.8333 21.3333V8.83333M14.5833 2.58333L20.8333 8.83333M14.5833 2.58333L14.5833 8.83333H20.8333M16.6666 14.0417H8.33329M16.6666 18.2083H8.33329M10.4166 9.875H8.33329" stroke="black" stroke-width="3" stroke-linecap="round" stroke-linejoin="round"/>
</svg>
