<svg width="25" height="26" viewBox="0 0 25 26" fill="none" xmlns="http://www.w3.org/2000/svg">
<path d="M12.5 7.79167C12.5 6.6866 12.0611 5.62679 11.2797 4.84539C10.4983 4.06399 9.43844 3.625 8.33337 3.625H2.08337V19.25H9.37504C10.2038 19.25 10.9987 19.5792 11.5848 20.1653C12.1708 20.7513 12.5 21.5462 12.5 22.375M12.5 7.79167V22.375M12.5 7.79167C12.5 6.6866 12.939 5.62679 13.7204 4.84539C14.5018 4.06399 15.5616 3.625 16.6667 3.625H22.9167V19.25H15.625C14.7962 19.25 14.0014 19.5792 13.4153 20.1653C12.8293 20.7513 12.5 21.5462 12.5 22.375" stroke="black" stroke-width="3" stroke-linecap="round" stroke-linejoin="round"/>
</svg>
