<svg width="25" height="26" viewBox="0 0 25 26" fill="none" xmlns="http://www.w3.org/2000/svg">
<g clip-path="url(#clip0_214_439)">
<path d="M12.5 16.125C14.2258 16.125 15.625 14.7259 15.625 13C15.625 11.2741 14.2258 9.87501 12.5 9.87501C10.7741 9.87501 9.37496 11.2741 9.37496 13C9.37496 14.7259 10.7741 16.125 12.5 16.125Z" stroke="black" stroke-width="3" stroke-linecap="round" stroke-linejoin="round"/>
<path d="M20.2083 16.125C20.0696 16.4392 20.0283 16.7877 20.0895 17.1256C20.1508 17.4635 20.3119 17.7753 20.552 18.0208L20.6145 18.0833C20.8082 18.2768 20.9619 18.5066 21.0668 18.7595C21.1716 19.0124 21.2256 19.2835 21.2256 19.5573C21.2256 19.8311 21.1716 20.1022 21.0668 20.3551C20.9619 20.608 20.8082 20.8378 20.6145 21.0313C20.4211 21.225 20.1913 21.3786 19.9384 21.4835C19.6855 21.5883 19.4144 21.6423 19.1406 21.6423C18.8668 21.6423 18.5957 21.5883 18.3428 21.4835C18.0899 21.3786 17.8601 21.225 17.6666 21.0313L17.6041 20.9688C17.3586 20.7286 17.0468 20.5675 16.7089 20.5063C16.371 20.445 16.0225 20.4863 15.7083 20.625C15.4002 20.757 15.1374 20.9763 14.9524 21.2558C14.7673 21.5352 14.668 21.8627 14.6666 22.1979V22.375C14.6666 22.9275 14.4471 23.4574 14.0564 23.8481C13.6657 24.2388 13.1358 24.4583 12.5833 24.4583C12.0308 24.4583 11.5009 24.2388 11.1102 23.8481C10.7195 23.4574 10.5 22.9275 10.5 22.375V22.2813C10.4919 21.9365 10.3803 21.6021 10.1797 21.3216C9.97902 21.0411 9.69864 20.8274 9.37496 20.7083C9.06078 20.5697 8.71226 20.5283 8.37435 20.5896C8.03643 20.6509 7.72462 20.8119 7.47913 21.0521L7.41663 21.1146C7.22314 21.3083 6.99337 21.462 6.74046 21.5668C6.48755 21.6716 6.21645 21.7256 5.94267 21.7256C5.66889 21.7256 5.39779 21.6716 5.14488 21.5668C4.89196 21.462 4.66219 21.3083 4.46871 21.1146C4.27501 20.9211 4.12134 20.6913 4.0165 20.4384C3.91166 20.1855 3.8577 19.9144 3.8577 19.6406C3.8577 19.3668 3.91166 19.0958 4.0165 18.8428C4.12134 18.5899 4.27501 18.3602 4.46871 18.1667L4.53121 18.1042C4.77135 17.8587 4.93244 17.5469 4.99371 17.209C5.05498 16.871 5.01362 16.5225 4.87496 16.2083C4.74291 15.9002 4.52366 15.6375 4.24419 15.4524C3.96473 15.2673 3.63724 15.168 3.30204 15.1667H3.12496C2.57242 15.1667 2.04252 14.9472 1.65182 14.5565C1.26112 14.1658 1.04163 13.6359 1.04163 13.0833C1.04163 12.5308 1.26112 12.0009 1.65182 11.6102C2.04252 11.2195 2.57242 11 3.12496 11H3.21871C3.5635 10.9919 3.89788 10.8803 4.1784 10.6797C4.45891 10.4791 4.67258 10.1987 4.79163 9.87501C4.93029 9.56082 4.97165 9.2123 4.91038 8.87439C4.84911 8.53648 4.68802 8.22467 4.44788 7.97917L4.38538 7.91667C4.19168 7.72319 4.03801 7.49342 3.93317 7.24051C3.82833 6.98759 3.77436 6.7165 3.77436 6.44271C3.77436 6.16893 3.82833 5.89783 3.93317 5.64492C4.03801 5.39201 4.19168 5.16224 4.38538 4.96876C4.57886 4.77505 4.80863 4.62139 5.06154 4.51655C5.31445 4.41171 5.58555 4.35774 5.85933 4.35774C6.13312 4.35774 6.40421 4.41171 6.65713 4.51655C6.91004 4.62139 7.13981 4.77505 7.33329 4.96876L7.39579 5.03126C7.64129 5.2714 7.9531 5.43249 8.29101 5.49376C8.62892 5.55503 8.97744 5.51367 9.29163 5.37501H9.37496C9.68305 5.24296 9.94581 5.02371 10.1309 4.74424C10.316 4.46477 10.4153 4.13728 10.4166 3.80209V3.62501C10.4166 3.07247 10.6361 2.54257 11.0268 2.15187C11.4175 1.76117 11.9474 1.54167 12.5 1.54167C13.0525 1.54167 13.5824 1.76117 13.9731 2.15187C14.3638 2.54257 14.5833 3.07247 14.5833 3.62501V3.71876C14.5846 4.05395 14.684 4.38144 14.869 4.66091C15.0541 4.94038 15.3169 5.15963 15.625 5.29167C15.9391 5.43033 16.2877 5.4717 16.6256 5.41043C16.9635 5.34916 17.2753 5.18806 17.5208 4.94792L17.5833 4.88542C17.7768 4.69172 18.0065 4.53806 18.2595 4.43321C18.5124 4.32837 18.7835 4.27441 19.0573 4.27441C19.331 4.27441 19.6021 4.32837 19.855 4.43321C20.108 4.53806 20.3377 4.69172 20.5312 4.88542C20.7249 5.07891 20.8786 5.30868 20.9834 5.56159C21.0883 5.8145 21.1422 6.0856 21.1422 6.35938C21.1422 6.63316 21.0883 6.90426 20.9834 7.15717C20.8786 7.41009 20.7249 7.63985 20.5312 7.83334L20.4687 7.89584C20.2286 8.14134 20.0675 8.45315 20.0062 8.79106C19.9449 9.12897 19.9863 9.47749 20.125 9.79167V9.87501C20.257 10.1831 20.4763 10.4459 20.7557 10.6309C21.0352 10.816 21.3627 10.9153 21.6979 10.9167H21.875C22.4275 10.9167 22.9574 11.1362 23.3481 11.5269C23.7388 11.9176 23.9583 12.4475 23.9583 13C23.9583 13.5525 23.7388 14.0824 23.3481 14.4731C22.9574 14.8638 22.4275 15.0833 21.875 15.0833H21.7812C21.446 15.0847 21.1185 15.184 20.8391 15.3691C20.5596 15.5542 20.3403 15.8169 20.2083 16.125Z" stroke="black" stroke-width="3" stroke-linecap="round" stroke-linejoin="round"/>
</g>
<defs>
<clipPath id="clip0_214_439">
<rect width="25" height="25" fill="white" transform="translate(0 0.5)"/>
</clipPath>
</defs>
</svg>
