<?xml version="1.0" standalone="no"?>
<!DOCTYPE svg PUBLIC "-//W3C//DTD SVG 20010904//EN"
 "http://www.w3.org/TR/2001/REC-SVG-20010904/DTD/svg10.dtd">
<svg version="1.0" xmlns="http://www.w3.org/2000/svg"
 width="64.000000pt" height="64.000000pt" viewBox="0 0 64.000000 64.000000"
 preserveAspectRatio="xMidYMid meet">

<g transform="translate(0.000000,64.000000) scale(0.100000,-0.100000)"
fill="#000000" stroke="none">
<path d="M135 630 c-4 -7 63 -10 194 -10 111 0 201 -4 201 -9 0 -18 -302 -28
-372 -12 -36 8 -48 1 -48 -29 0 -5 96 -8 213 -8 252 0 237 0 237 -12 0 -5 -18
-10 -40 -10 -59 0 -49 -18 13 -22 38 -2 52 -7 52 -18 0 -13 -35 -15 -250 -15
-240 -1 -250 -2 -253 -20 -2 -11 -20 -74 -39 -140 -20 -66 -38 -129 -40 -140
-5 -23 84 -148 113 -159 23 -9 29 2 53 103 28 111 84 302 94 319 6 8 35 12 88
12 66 0 79 -3 79 -16 0 -18 -56 -262 -71 -308 -13 -41 -11 -73 6 -106 15 -28
19 -30 78 -30 34 0 67 4 72 8 6 4 16 30 24 57 7 28 31 115 53 195 65 237 61
327 -15 363 -29 14 -69 17 -235 17 -123 0 -203 -4 -207 -10z m79 -168 c2 -4
-13 -71 -34 -147 -21 -77 -41 -155 -45 -172 -3 -18 -11 -35 -16 -38 -10 -7
-55 40 -64 67 -6 16 37 226 56 275 7 19 16 23 53 23 25 0 47 -4 50 -8z m371
-12 c4 -7 -60 -312 -81 -378 -2 -8 -24 -12 -64 -12 -33 0 -60 2 -60 4 0 14 94
364 101 379 7 12 22 17 54 17 24 0 47 -4 50 -10z"/>
<path d="M101 313 c-26 -102 -23 -163 9 -163 8 0 50 156 50 185 0 9 -9 15 -25
15 -20 0 -26 -7 -34 -37z"/>
<path d="M477 323 c-11 -21 -60 -234 -54 -239 3 -3 18 -3 34 0 26 6 29 12 47
99 32 155 32 147 3 147 -14 0 -28 -3 -30 -7z"/>
<path d="M100 527 c0 -11 29 -13 153 -9 207 6 213 22 9 22 -129 0 -162 -3
-162 -13z"/>
<path d="M448 523 c7 -3 16 -2 19 1 4 3 -2 6 -13 5 -11 0 -14 -3 -6 -6z"/>
</g>
</svg>
